<svg xmlns="http://www.w3.org/2000/svg" xmlns:xlink="http://www.w3.org/1999/xlink" fill="none" version="1.1" width="24" height="24" viewBox="0 0 24 24"><g><path d="M23.3069,16.0291C18.7115,14.6458,16.04,13.8211,15.2928,13.5552C15.9744,12.384,16.5216,11.04,16.8768,9.5712L12.96,9.5712L12.96,8.2464L17.76,8.2464L17.76,7.4304L12.96,7.4304L12.96,5.2128L11.1168,5.2128C10.7808,5.2128,10.7424,5.5104,10.7424,5.5104L10.7424,7.4208L6.24,7.4208L6.24,8.2368L10.7424,8.2368L10.7424,9.5616L7.056,9.5616L7.056,10.3008L14.5248,10.3008C14.256,11.232,13.8912,12.1152,13.4592,12.912C11.7696,12.3552,10.8288,11.9712,8.7648,11.7792C4.8576,11.4048,3.9552,13.5552,3.8112,14.8704C3.6,16.8768,5.376,18.5088,8.0256,18.5088C10.6752,18.5088,12.4416,17.28,14.1216,15.2448C15.5215,15.9143,18.1271,17.0752,21.9383,18.7274C19.7802,21.9092,16.1342,24,12,24C5.37258,24,0,18.6274,0,12C0,5.37258,5.37258,0,12,0C18.6274,0,24,5.37258,24,12C24,13.4134,23.7557,14.7697,23.3069,16.0291ZM7.7184,17.2416C4.9152,17.2416,4.4736,15.4656,4.6176,14.7264C4.7616,13.9872,5.5776,13.0272,7.1424,13.0272C8.9376,13.0272,10.5408,13.488,12.4704,14.4192C11.1072,16.1952,9.4464,17.2416,7.7184,17.2416Z" fill="#3662EC" fill-opacity="1" style="mix-blend-mode:passthrough"/></g></svg>