<svg xmlns="http://www.w3.org/2000/svg" xmlns:xlink="http://www.w3.org/1999/xlink" fill="none" version="1.1" width="24.05542755126953" height="24" viewBox="0 0 24.05542755126953 24"><defs><clipPath id="master_svg0_641_49337"><rect x="0" y="0" width="24.05542755126953" height="24" rx="0"/></clipPath></defs><g clip-path="url(#master_svg0_641_49337)"><g><path d="M8.6309378125,14.64276103515625C8.2654778125,14.82656103515625,7.8179378125,14.69186103515625,7.6193278125,14.33846103515625L7.5691578125,14.23136103515625L5.4790478125,9.70520103515625C5.4704178125,9.65075103515625,5.4704178125,9.59517103515625,5.4790478125,9.54061103515625C5.4790278125,9.441001035156251,5.5198178125,9.345531035156249,5.5921778125,9.27585103515625C5.6645478125,9.20615103515625,5.7624178125,9.16812103515625,5.8636378125,9.170321035156249C5.9453478125,9.16841103515625,6.0251678125,9.19459103515625,6.0893678125,9.24439103515625L8.5974878125,10.97254103515625C8.7830778125,11.09490103515625,9.0011578125,11.16079103515625,9.2245278125,11.16181103515625C9.3591678125,11.16271103515625,9.4926278125,11.13758103515625,9.6175178125,11.08778103515625L21.1716078125,5.99380103515625C18.7738078125,3.38721103515625,15.3461078125,1.93136573515625,11.7744078125,2.00255445515625C5.4205278125,2.00255445515625,0.2705078125,6.22422103515625,0.2705078125,11.47456103515625C0.3462115125,14.34426103515625,1.8292978125,17.00026103515625,4.2500678125,18.60116103515625C4.5103078125,18.78996103515625,4.6209578125,19.11996103515625,4.5259578125,19.42406103515625L4.0076178124999995,21.34976103515625C3.9762078125,21.43736103515625,3.9565278125,21.52876103515625,3.9490878125,21.62136103515625C3.9467778125,21.72246103515625,3.9865578125,21.81996103515625,4.059187812499999,21.89156103515625C4.1318278125,21.96306103515625,4.2309878125000004,22.00216103515625,4.3336678125,21.99996103515625C4.4104678125,21.99556103515625,4.4850378125,21.97296103515625,4.5510378125,21.93406103515625L7.0591778125,20.50216103515625C7.2427178125,20.39066103515625,7.4538178125,20.33086103515625,7.6694878125,20.32936103515625C7.7828478125,20.32906103515625,7.8956078125,20.34576103515625,8.0039078125,20.37866103515625C9.2252678125,20.71846103515625,10.4885078125,20.89016103515625,11.7578078125,20.88896103515625C18.1117078125,20.88896103515625,23.2703078125,16.667361035156247,23.2703078125,11.45804103515625C23.2816078125,9.90499103515625,22.8438078125,8.38077103515625,22.0076078125,7.06361103515625L8.7228978125,14.59346103515625L8.6309378125,14.64276103515625Z" fill="#21BB40" fill-opacity="1" style="mix-blend-mode:passthrough"/></g></g></svg>