<svg xmlns="http://www.w3.org/2000/svg" xmlns:xlink="http://www.w3.org/1999/xlink" fill="none" version="1.1" width="24" height="24" viewBox="0 0 24 24"><defs><clipPath id="master_svg0_542_65222"><rect x="0" y="0" width="24" height="24" rx="0"/></clipPath></defs><g clip-path="url(#master_svg0_542_65222)"><g><path d="M15.12461171875,7.460882271575928Q15.53311171875,7.460882271575928,15.82191171875,7.172072271575928Q16.11071171875,6.883252271575928,16.11071171875,6.474802271575928Q16.11071171875,6.066362271575928,15.82191171875,5.7775422715759275Q15.53311171875,5.488732271575928,15.12461171875,5.488732271575928Q14.45701171875,5.477212271575928,13.80821171875,6.198052271575928Q13.33347171875,6.725582271575927,13.02739171875,7.461602271575927L15.09191171875,7.461602271575927Q15.10831171875,7.460882271575928,15.12461171875,7.460882271575928ZM17.414911718749998,7.461602271575927Q17.61071171875,7.008742271575928,17.61071171875,6.474802271575928Q17.61071171875,5.445042271575928,16.88251171875,4.716884271575927Q16.154411718749998,3.988729000575928,15.12461171875,3.9887291785759276Q13.79951171875,3.965526971575928,12.69330171875,5.194612271575927Q12.30202171875,5.629372271575928,11.99969171875,6.156432271575928Q11.69737171875,5.629372271575928,11.30608171875,5.194612271575927Q10.19991171875,3.9655276715759276,8.861681718749999,3.988843381575928Q7.84498171875,3.988728880575928,7.116831718749999,4.716884271575927Q6.38867171875,5.445042271575928,6.38867171875,6.474802271575928Q6.38867171875,7.008742271575928,6.58443171875,7.461602271575927L5.18701171875,7.461602271575927Q4.46214171875,7.461602271575927,3.94957471875,7.974162271575928Q3.43701171875,8.486722271575928,3.43701171875,9.211602271575927L3.43701171875,10.684032271575928Q3.43701171875,11.408902271575927,3.94957471875,11.921462271575928Q4.45712171875,12.429012271575928,5.17285171875,12.433982271575928L5.17285171875,17.760732271575925Q5.17285171875,18.79063227157593,5.90105171875,19.518832271575928Q6.62924171875,20.24693227157593,7.65907171875,20.24693227157593L16.340111718750002,20.24693227157593Q17.37001171875,20.24693227157593,18.09821171875,19.518832271575928Q18.82631171875,18.79063227157593,18.82631171875,17.760732271575925L18.82631171875,12.433982271575928Q19.54261171875,12.429282271575929,20.05041171875,11.921462271575928Q20.56291171875,11.408902271575927,20.56291171875,10.684032271575928L20.56291171875,9.211602271575927Q20.56291171875,8.486722271575928,20.05041171875,7.974162271575928Q19.53781171875,7.461602271575927,18.81291171875,7.461602271575927L17.414911718749998,7.461602271575927ZM18.08161171875,10.934032271575928L18.07631171875,10.934012271575927L18.07111171875,10.934032271575928L5.9281317187500004,10.934032271575928L5.92285171875,10.934012271575927L5.9175717187500005,10.934032271575928L5.18701171875,10.934032271575928Q5.08346171875,10.934032271575928,5.01023171875,10.860802271575928Q4.93701171875,10.787582271575928,4.93701171875,10.684032271575928L4.93701171875,9.211602271575927Q4.93701171875,9.108042271575929,5.01023171875,9.034822271575928Q5.08346171875,8.961602271575927,5.18701171875,8.961602271575927L18.81291171875,8.961602271575927Q18.91651171875,8.961602271575927,18.98971171875,9.034822271575928Q19.06291171875,9.108042271575929,19.06291171875,9.211602271575927L19.06291171875,10.684032271575928Q19.06291171875,10.787582271575928,18.98971171875,10.860802271575928Q18.91651171875,10.934032271575928,18.81291171875,10.934032271575928L18.08161171875,10.934032271575928ZM6.67285171875,12.434032271575928L17.32631171875,12.434032271575928L17.32631171875,17.760732271575925Q17.32631171875,18.16923227157593,17.03751171875,18.458132271575927Q16.74861171875,18.74693227157593,16.340111718750002,18.74693227157593L7.65907171875,18.74693227157593Q7.25056171875,18.74693227157593,6.96171171875,18.458132271575927Q6.67285171875,18.16923227157593,6.67285171875,17.760732271575925L6.67285171875,12.434032271575928ZM8.90743171875,7.461602271575927L10.971991718750001,7.461602271575927Q10.66591171875,6.725582271575927,10.19114171875,6.198052271575928Q9.54238171875,5.477212271575928,8.887811718750001,5.488612271575928Q8.46630171875,5.488732271575928,8.17749171875,5.7775422715759275Q7.88867171875,6.066362271575928,7.88867171875,6.474812271575928Q7.88867171875,6.883252271575928,8.17749171875,7.172072271575928Q8.46630171875,7.460882271575928,8.87475171875,7.460882271575928Q8.89110171875,7.460882271575928,8.90743171875,7.461602271575927Z" fill-rule="evenodd" fill="#FFFFFF" fill-opacity="1" style="mix-blend-mode:passthrough"/></g></g></svg>