<svg xmlns="http://www.w3.org/2000/svg" xmlns:xlink="http://www.w3.org/1999/xlink" fill="none" version="1.1" width="16" height="16" viewBox="0 0 16 16"><g><g><path d="M4,2.2C4,2.0895431,4.0895399999999995,2,4.2,2L5.80001,2C5.9104600000000005,2,6.00001,2.0895431,6.00001,2.2L6.00001,3L10,3L10,2.2C10,2.0895431,10.08954,2,10.2,2L11.80001,2C11.91046,2,12,2.0895431,12,2.2L12,3L13.5,3C13.7762,3,14,3.22386,14,3.5L14,13.5C14,13.7761,13.7762,14,13.5,14L2.500002,14C2.223858,14,2,13.7761,2,13.5L2,3.5C2,3.22386,2.223858,3,2.500002,3L4,3L4,2.2ZM3,6L3,12.8C3,12.9105,3.08954,13,3.2,13L12.8,13C12.9105,13,13,12.9105,13,12.8L13,6L3,6ZM4,7.2L4,8.8Q4,8.839780000000001,4.015219999999999,8.87654Q4.03045,8.91329,4.05858,8.94142Q4.08671,8.96955,4.12346,8.98478Q4.16022,9,4.2,9L5.80001,9Q5.83979,9,5.87654,8.984770000000001Q5.9133,8.96955,5.94143,8.94142Q5.9695599999999995,8.91329,5.984780000000001,8.87654Q6.00001,8.839780000000001,6.00001,8.8L6.00001,7.2Q6.00001,7.16022,5.984780000000001,7.12346Q5.9695599999999995,7.08671,5.94143,7.05858Q5.9133,7.03045,5.87654,7.01522Q5.83979,7,5.80001,7L4.2,7Q4.16022,7,4.12346,7.01522Q4.08671,7.03045,4.05858,7.05858Q4.03045,7.08671,4.015219999999999,7.12346Q4,7.16022,4,7.2ZM7,7.2L7,8.8Q7,8.839780000000001,7.01522,8.87654Q7.03045,8.91329,7.05858,8.94142Q7.08671,8.96955,7.12346,8.98478Q7.16022,9,7.2,9L8.80001,9Q8.83979,9,8.87654,8.984770000000001Q8.9133,8.96955,8.94143,8.94142Q8.969560000000001,8.91329,8.98478,8.87654Q9.00001,8.839780000000001,9.00001,8.8L9.00001,7.2Q9.00001,7.16022,8.98478,7.12346Q8.969560000000001,7.08671,8.94143,7.05858Q8.9133,7.03045,8.87654,7.01522Q8.83979,7,8.80001,7L7.2,7Q7.16022,7,7.12346,7.01522Q7.08671,7.03045,7.05858,7.05858Q7.03045,7.08671,7.01522,7.12346Q7,7.16022,7,7.2ZM10,7.2L10,8.8Q10,8.839780000000001,10.01522,8.87654Q10.03045,8.91329,10.05858,8.94142Q10.08671,8.96955,10.12346,8.98478Q10.16022,9,10.2,9L11.80001,9Q11.83979,9,11.87654,8.984770000000001Q11.9133,8.96955,11.94143,8.94142Q11.96956,8.91329,11.98478,8.87654Q12,8.839780000000001,12,8.8L12,7.2Q12,7.16022,11.98478,7.12346Q11.96956,7.08671,11.94143,7.05858Q11.9133,7.03045,11.87654,7.01522Q11.83979,7,11.80001,7L10.2,7Q10.16022,7,10.12346,7.01522Q10.08671,7.03045,10.05858,7.05858Q10.03045,7.08671,10.01522,7.12346Q10,7.16022,10,7.2ZM4,10.2L4,11.8Q4,11.83978,4.015219999999999,11.87654Q4.03045,11.91329,4.05858,11.94142Q4.08671,11.96955,4.12346,11.98477Q4.16022,12,4.2,12L5.80001,12Q5.83979,12,5.87654,11.98477Q5.9133,11.96955,5.94143,11.94142Q5.9695599999999995,11.91329,5.984780000000001,11.87654Q6.00001,11.83978,6.00001,11.8L6.00001,10.2Q6.00001,10.16022,5.984780000000001,10.12346Q5.9695599999999995,10.08671,5.94143,10.05858Q5.9133,10.03045,5.87654,10.01522Q5.83979,10,5.80001,10L4.2,10Q4.16022,10,4.12346,10.01522Q4.08671,10.03045,4.05858,10.05858Q4.03045,10.08671,4.015219999999999,10.12346Q4,10.16022,4,10.2ZM7,10.2L7,11.8Q7,11.83978,7.01522,11.87654Q7.03045,11.91329,7.05858,11.94142Q7.08671,11.96955,7.12346,11.98477Q7.16022,12,7.2,12L8.80001,12Q8.83979,12,8.87654,11.98477Q8.9133,11.96955,8.94143,11.94142Q8.969560000000001,11.91329,8.98478,11.87654Q9.00001,11.83978,9.00001,11.8L9.00001,10.2Q9.00001,10.16022,8.98478,10.12346Q8.969560000000001,10.08671,8.94143,10.05858Q8.9133,10.03045,8.87654,10.01522Q8.83979,10,8.80001,10L7.2,10Q7.16022,10,7.12346,10.01522Q7.08671,10.03045,7.05858,10.05858Q7.03045,10.08671,7.01522,10.12346Q7,10.16022,7,10.2ZM10,10.2L10,11.8Q10,11.83978,10.01522,11.87654Q10.03045,11.91329,10.05858,11.94142Q10.08671,11.96955,10.12346,11.98477Q10.16022,12,10.2,12L11.80001,12Q11.83979,12,11.87654,11.98477Q11.9133,11.96955,11.94143,11.94142Q11.96956,11.91329,11.98478,11.87654Q12,11.83978,12,11.8L12,10.2Q12,10.16022,11.98478,10.12346Q11.96956,10.08671,11.94143,10.05858Q11.9133,10.03045,11.87654,10.01522Q11.83979,10,11.80001,10L10.2,10Q10.16022,10,10.12346,10.01522Q10.08671,10.03045,10.05858,10.05858Q10.03045,10.08671,10.01522,10.12346Q10,10.16022,10,10.2Z" fill-rule="evenodd" fill="#FFFFFF" fill-opacity="0.699999988079071"/></g></g></svg>