<svg xmlns="http://www.w3.org/2000/svg" xmlns:xlink="http://www.w3.org/1999/xlink" fill="none" version="1.1" width="24" height="24" viewBox="0 0 24 24"><defs><clipPath id="master_svg0_542_65165"><rect x="0" y="0" width="24" height="24" rx="0"/></clipPath></defs><g clip-path="url(#master_svg0_542_65165)"><g><path d="M5.232421875,20.383369492187498L5.232421875,20.3836694921875Q5.232421875,20.4575394921875,5.246832875,20.5299794921875Q5.261243875,20.6024294921875,5.289511875,20.6706794921875Q5.317780875,20.738929492187502,5.358819875,20.8003394921875Q5.399858875,20.8617594921875,5.452091875,20.9139994921875Q5.504324875,20.9662294921875,5.565743875,21.0072694921875Q5.627163875,21.0483094921875,5.695408875,21.0765794921875Q5.763654875,21.1048394921875,5.836103875,21.1192594921875Q5.908553375,21.1336694921875,5.982421875,21.1336694921875Q6.056290375,21.1336694921875,6.128739875,21.1192594921875Q6.201188875,21.1048394921875,6.269434875,21.0765794921875Q6.337679875,21.0483094921875,6.399099875,21.0072694921875Q6.460518875,20.9662294921875,6.512751875,20.9139994921875Q6.564984875,20.8617594921875,6.606023875,20.8003394921875Q6.647062875,20.738929492187502,6.675331875,20.6706794921875Q6.703599875,20.6024294921875,6.718010875,20.5299794921875Q6.732421875,20.4575394921875,6.732421875,20.3836694921875L6.732421875,20.383369492187498L6.732421875,18.0175094921875Q6.732421875,16.9038794921875,7.519871875,16.1164294921875Q8.307331875,15.3289794921875,9.420951875,15.3289794921875L14.578751875,15.3289794921875Q15.692371875,15.3289794921875,16.479821875,16.1164294921875Q17.267321875,16.9038794921875,17.267321875,18.0175094921875L17.267321875,20.3836694921875L17.267321875,20.3836794921875Q17.267321875,20.4575494921875,17.281721875000002,20.5299994921875Q17.296121875,20.6024494921875,17.324421875,20.6706894921875Q17.352721875,20.738939492187498,17.393721875,20.8003494921875Q17.434821875,20.8617694921875,17.487021875,20.9139994921875Q17.539221875000003,20.9662394921875,17.600621875,21.0072694921875Q17.662121875,21.0483094921875,17.730321875,21.0765794921875Q17.798521875,21.1048494921875,17.871021875,21.1192594921875Q17.943421875,21.1336694921875,18.017321875,21.1336694921875Q18.091221875000002,21.1336694921875,18.163621875,21.1192594921875Q18.236121875000002,21.1048394921875,18.304321875,21.0765794921875Q18.372621875,21.0483094921875,18.434021875,21.0072694921875Q18.495421874999998,20.9662294921875,18.547621875,20.9139994921875Q18.599921875,20.8617594921875,18.640921875,20.8003394921875Q18.682021875,20.738929492187502,18.710221875000002,20.6706794921875Q18.738521875,20.6024294921875,18.752921875,20.5299794921875Q18.767321875,20.4575394921875,18.767321875,20.3836694921875L18.767321875,20.3836494921875L18.767321875,18.0175094921875Q18.767321875,16.2825694921875,17.540521875,15.0557714921875Q16.313721875,13.8289794921875,14.578751875,13.8289794921875L9.420951875,13.8289794921875Q7.686011875,13.8289794921875,6.459214875,15.0557714921875Q5.232421875,16.2825594921875,5.232421875,18.0175094921875L5.232421875,20.383369492187498Z" fill-rule="evenodd" fill="#FFFFFF" fill-opacity="1" style="mix-blend-mode:passthrough"/></g><g><ellipse cx="11.999810218811035" cy="7.701836585998535" rx="3.438530921936035" ry="3.438530921936035" fill-opacity="0" stroke-opacity="1" stroke="#FFFFFF" fill="none" stroke-width="1.5" stroke-linecap="ROUND" stroke-linejoin="round" style="mix-blend-mode:passthrough"/></g></g></svg>