<svg xmlns="http://www.w3.org/2000/svg" xmlns:xlink="http://www.w3.org/1999/xlink" fill="none" version="1.1" width="24" height="24" viewBox="0 0 24 24"><defs><clipPath id="master_svg0_542_65087"><rect x="0" y="0" width="24" height="24" rx="0"/></clipPath></defs><g clip-path="url(#master_svg0_542_65087)"><g><path d="M19.75,21L19.75,5Q19.75,3.860914,18.944499999999998,3.0554566Q18.1391,2.25,17,2.25L7,2.25Q5.860913,2.25,5.0554564,3.0554564Q4.25,3.860913,4.25,5L4.25,21Q4.25,21.1992,4.348818,21.3721Q4.385467,21.4362,4.433924,21.492Q4.482381,21.5477,4.540784,21.593Q4.599187,21.6382,4.665292,21.6712Q4.731396,21.7041,4.802662,21.7236Q4.873928,21.743,4.9476159,21.7482Q5.0213041,21.7533,5.0945829,21.744Q5.167862,21.7347,5.237915,21.7113Q5.307968,21.6878,5.372104,21.6512L12,17.863799999999998L18.6279,21.6512Q18.800800000000002,21.75,19,21.75Q19.073900000000002,21.75,19.1463,21.7356Q19.2188,21.7212,19.287,21.6929Q19.3553,21.6646,19.4167,21.6236Q19.478099999999998,21.5826,19.5303,21.5303Q19.5826,21.4781,19.6236,21.4167Q19.6646,21.3553,19.6929,21.287Q19.7212,21.2188,19.735599999999998,21.1463Q19.75,21.0739,19.75,21ZM17.8839,4.1161200000000004Q18.25,4.4822299999999995,18.25,5L18.25,19.7076L12.3721,16.3488Q12.28711,16.3003,12.192499999999999,16.275100000000002Q12.09789,16.25,12,16.25Q11.90211,16.25,11.807500000000001,16.275100000000002Q11.71289,16.3003,11.6279,16.3488L5.75,19.7076L5.75,5Q5.75,4.4822299999999995,6.1161200000000004,4.1161200000000004Q6.4822299999999995,3.75,7,3.75L17,3.75Q17.5178,3.75,17.8839,4.1161200000000004Z" fill-rule="evenodd" fill="#FFFFFF" fill-opacity="1" style="mix-blend-mode:passthrough"/></g><g><path d="M15.53033,8.53033Q15.635819999999999,8.424841,15.692910000000001,8.287013Q15.75,8.149184,15.75,8Q15.75,7.9261315,15.73559,7.853682Q15.72118,7.781233,15.692910000000001,7.712987Q15.66464,7.644742,15.6236,7.583322Q15.58256,7.521903,15.53033,7.46967Q15.478100000000001,7.417437,15.41668,7.376398Q15.355260000000001,7.335359,15.28701,7.30709Q15.21877,7.278822,15.14632,7.264411Q15.07387,7.25,15,7.25Q14.850819999999999,7.25,14.71299,7.30709Q14.57516,7.364181,14.46967,7.46967L11,10.93934L9.530484,9.46982L9.53033,9.46967Q9.424841,9.36418,9.287013,9.30709Q9.149184,9.25,9,9.25Q8.9261315,9.25,8.853682,9.26441Q8.781233,9.27882,8.712987,9.30709Q8.644742,9.33536,8.583322,9.3764Q8.521903,9.41744,8.46967,9.46967Q8.417437,9.5219,8.376398,9.58332Q8.335359,9.64474,8.30709,9.71299Q8.278822,9.78123,8.264410999999999,9.85368Q8.25,9.92613,8.25,10Q8.25,10.14918,8.30709,10.28701Q8.364181,10.42484,8.46967,10.53033L10.46967,12.53033Q10.57516,12.635819999999999,10.71299,12.692910000000001Q10.85082,12.75,11,12.75Q11.14918,12.75,11.28701,12.692910000000001Q11.42484,12.635819999999999,11.53033,12.53033L15.53033,8.53033L15.53033,8.53033Z" fill-rule="evenodd" fill="#FFFFFF" fill-opacity="1" style="mix-blend-mode:passthrough"/></g></g></svg>