<svg xmlns="http://www.w3.org/2000/svg" xmlns:xlink="http://www.w3.org/1999/xlink" fill="none" version="1.1" width="24" height="24" viewBox="0 0 24 24"><defs><clipPath id="master_svg0_542_27348"><rect x="0" y="0" width="24" height="24" rx="0"/></clipPath></defs><g clip-path="url(#master_svg0_542_27348)"><g transform="matrix(-1,0,0,1,36,0)"><g><path d="M25.25,16L25.25,6Q25.25,5.275126,25.762563,4.762563Q26.275126,4.25,27,4.25L29,4.25Q29.72487,4.25,30.23744,4.762563Q30.75,5.275126,30.75,6L30.75,16Q30.75,16.724899999999998,30.23744,17.2374Q29.72487,17.75,29,17.75L27,17.75Q26.275127,17.75,25.762563,17.2374Q25.25,16.724899999999998,25.25,16ZM26.75,16Q26.75,16.1036,26.823223,16.1768Q26.896446,16.25,27,16.25L29,16.25Q29.25,16.25,29.25,16L29.25,6Q29.25,5.75,29,5.75L27,5.75Q26.896446,5.75,26.823223,5.8232230000000005Q26.75,5.896446,26.75,6L26.75,16Z" fill="#FFFFFF" fill-opacity="1" style="mix-blend-mode:passthrough"/></g><g><path d="M17.25,16L17.25,9Q17.25,8.275126,17.762563,7.762563Q18.275126,7.25,19,7.25L21,7.25Q21.72487,7.25,22.23744,7.762563Q22.75,8.275126,22.75,9L22.75,16Q22.75,16.72487,22.23744,17.23744Q21.72487,17.75,21,17.75L19,17.75Q18.275128,17.75,17.762563,17.23744Q17.25,16.72487,17.25,16ZM18.75,16Q18.75,16.10355,18.823223,16.17678Q18.896447,16.25,19,16.25L21,16.25Q21.25,16.25,21.25,16L21.25,9Q21.25,8.75,21,8.75L19,8.75Q18.896446,8.75,18.823223,8.823223Q18.75,8.896446,18.75,9L18.75,16Z" fill="#FFFFFF" fill-opacity="1" style="mix-blend-mode:passthrough"/></g></g></g></svg>