<svg xmlns="http://www.w3.org/2000/svg" xmlns:xlink="http://www.w3.org/1999/xlink" fill="none" version="1.1" width="108.800048828125" height="20" viewBox="0 0 108.800048828125 20"><defs><linearGradient x1="0.01669413223862648" y1="-0.04983149468898773" x2="1.0185256004333496" y2="1.0192914009094238" id="master_svg0_1_6465"><stop offset="0%" stop-color="#0066FF" stop-opacity="1"/><stop offset="42.24049150943756%" stop-color="#00FFB7" stop-opacity="1"/><stop offset="53.546565771102905%" stop-color="#F7FFFD" stop-opacity="1"/><stop offset="60.372161865234375%" stop-color="#FFFFFF" stop-opacity="1"/><stop offset="99.99999403953552%" stop-color="#005EFF" stop-opacity="1"/></linearGradient><linearGradient x1="9.385612975805998" y1="-0.9966298937797546" x2="92.53762483596802" y2="20.385828018188477" gradientUnits="userSpaceOnUse" id="master_svg1_1_6465"><stop offset="0%" stop-color="#0066FF" stop-opacity="1"/><stop offset="42.24049150943756%" stop-color="#00FFB7" stop-opacity="1"/><stop offset="53.546565771102905%" stop-color="#F7FFFD" stop-opacity="1"/><stop offset="60.372161865234375%" stop-color="#FFFFFF" stop-opacity="1"/><stop offset="99.99999403953552%" stop-color="#005EFF" stop-opacity="1"/></linearGradient></defs><g><rect x="0.25" y="0.25" width="108.30000305175781" height="19.5" rx="9.75" stroke="url(#master_svg0_1_6465)" fill-opacity="0" fill="none" stroke-width="0.5"/><g><path d="M11.85,7.566C10.870000000000001,7.566,10.072,7.902,9.47,8.588C8.854,9.26,8.56,10.128,8.56,11.22C8.56,12.312,8.854,13.18,9.47,13.838C10.072,14.496,10.870000000000001,14.832,11.85,14.832C12.802,14.832,13.530000000000001,14.426,14.062000000000001,13.628L14.062000000000001,14.748C14.062000000000001,16.106,13.432,16.792,12.172,16.792C11.584,16.792,11.15,16.694,10.884,16.526C10.604,16.344,10.436,16.036,10.352,15.616L8.868,15.616C9.008,16.414,9.33,17.002,9.862,17.394C10.394,17.772,11.164,17.968,12.172,17.968C14.411999999999999,17.968,15.546,16.82,15.546,14.524L15.546,7.762L14.062000000000001,7.762L14.062000000000001,8.728C13.530000000000001,7.944,12.802,7.566,11.85,7.566ZM12.074,8.77C12.704,8.77,13.193999999999999,8.98,13.558,9.428C13.894,9.862,14.076,10.464,14.076,11.22C14.076,11.962,13.894,12.55,13.558,12.984C13.193999999999999,13.404,12.704,13.614,12.074,13.614C11.346,13.614,10.828,13.362,10.506,12.886C10.225999999999999,12.48,10.086,11.92,10.086,11.22C10.086,10.45,10.254,9.848,10.618,9.428C10.954,8.98,11.443999999999999,8.77,12.074,8.77ZM18.476,4.864C18.182000000000002,4.864,17.944000000000003,4.948,17.747999999999998,5.144C17.552,5.326,17.454,5.564,17.454,5.858C17.454,6.138,17.552,6.39,17.747999999999998,6.586C17.944000000000003,6.768,18.182000000000002,6.866,18.476,6.866C18.756,6.866,19.008,6.768,19.204,6.586C19.4,6.39,19.512,6.152,19.512,5.858C19.512,5.564,19.414,5.326,19.218,5.144C19.022,4.948,18.77,4.864,18.476,4.864ZM17.734,7.762L17.734,15L19.218,15L19.218,7.762L17.734,7.762ZM23.618000000000002,5.424L22.134,6.04L22.134,7.762L20.79,7.762L20.79,8.994L22.134,8.994L22.134,13.194C22.134,13.768,22.259999999999998,14.202,22.54,14.51C22.82,14.832,23.282,15,23.898,15L25.088,15L25.088,13.768L24.136,13.768C23.954,13.768,23.828,13.712,23.744,13.628C23.66,13.53,23.618000000000002,13.39,23.618000000000002,13.194L23.618000000000002,8.994L25.27,8.994L25.27,7.762L23.618000000000002,7.762L23.618000000000002,5.424ZM34.224000000000004,7.566C33.356,7.566,32.641999999999996,7.748,32.096000000000004,8.126C31.55,8.49,31.284,9.008,31.284,9.666C31.284,10.282,31.564,10.772,32.123999999999995,11.122C32.46,11.346,33.062,11.556,33.916,11.752C34.658,11.92,35.147999999999996,12.06,35.372,12.172C35.792,12.368,36.016,12.648,36.016,12.998C36.016,13.642,35.428,13.978,34.28,13.978C33.72,13.978,33.328,13.88,33.076,13.698C32.824,13.502,32.641999999999996,13.152,32.558,12.662L31.102,12.662C31.27,14.342,32.334,15.196,34.322,15.196C36.464,15.196,37.542,14.426,37.542,12.9C37.542,12.256,37.248000000000005,11.752,36.674,11.388C36.282,11.136,35.666,10.898,34.84,10.702C34.111999999999995,10.52,33.635999999999996,10.38,33.384,10.268C32.992000000000004,10.086,32.796,9.876,32.796,9.624C32.796,9.344,32.922,9.12,33.188,8.98C33.412,8.84,33.748000000000005,8.784,34.196,8.784C34.7,8.784,35.092,8.868,35.344,9.036C35.582,9.19,35.75,9.456,35.861999999999995,9.848L37.304,9.848C37.135999999999996,8.322,36.1,7.566,34.224000000000004,7.566ZM41.2,5.424L39.716,6.04L39.716,7.762L38.372,7.762L38.372,8.994L39.716,8.994L39.716,13.194C39.716,13.768,39.842,14.202,40.122,14.51C40.402,14.832,40.864,15,41.48,15L42.67,15L42.67,13.768L41.718,13.768C41.536,13.768,41.41,13.712,41.326,13.628C41.242,13.53,41.2,13.39,41.2,13.194L41.2,8.994L42.852,8.994L42.852,7.762L41.2,7.762L41.2,5.424ZM47.504,7.566C46.608,7.566,45.88,7.72,45.348,8.056C44.732,8.42,44.34,9.008,44.186,9.792L45.656,9.918C45.74,9.512,45.95,9.218,46.286,9.022C46.566,8.854,46.944,8.77,47.406,8.77C48.498,8.77,49.044,9.274,49.044,10.282L49.044,10.576L47.42,10.618C46.356,10.646,45.516,10.856,44.928,11.276C44.284,11.71,43.962,12.34,43.962,13.152C43.962,13.754,44.186,14.244,44.648,14.622C45.068,15,45.656,15.196,46.412,15.196C47.056,15.196,47.616,15.07,48.092,14.846C48.512,14.636,48.862,14.342,49.142,13.978L49.142,15L50.514,15L50.514,10.38C50.514,9.498,50.29,8.826,49.856,8.364C49.352,7.832,48.568,7.566,47.504,7.566ZM49.044,11.654L49.044,12.074C49.044,12.634,48.806,13.11,48.358,13.488C47.91,13.866,47.378,14.062,46.748,14.062C46.37,14.062,46.062,13.964,45.838,13.782C45.6,13.6,45.488,13.376,45.488,13.096C45.488,12.2,46.16,11.724,47.518,11.696L49.044,11.654ZM55.768,7.566C55.32,7.566,54.928,7.692,54.592,7.972C54.312,8.168,54.074,8.462,53.892,8.854L53.892,7.762L52.408,7.762L52.408,15L53.892,15L53.892,11.164C53.892,10.534,54.074,10.016,54.452,9.624C54.802,9.26,55.208,9.078,55.656,9.078C55.992,9.078,56.342,9.12,56.706,9.232L56.706,7.748C56.454,7.622,56.132,7.566,55.768,7.566ZM62.496,9.204L62.496,10.52L75.166,10.52L75.166,9.204L62.496,9.204ZM76.766,4.164L76.766,5.466L82.002,5.466L82.002,16.442L83.332,16.442L83.332,8.714C84.508,9.316,85.978,10.198,87.742,11.346L88.54,10.142C86.776,9.078,85.04,8.126,83.332,7.3L83.332,5.466L89.296,5.466L89.296,4.164L76.766,4.164Z" fill="url(#master_svg1_1_6465)" fill-opacity="1"/></g><g><path d="M100.01898,10L95.679908,13.61589L96.320092,14.38411L101.58103,10L96.320092,5.615889L95.679908,6.384111L100.01898,10Z" fill-rule="evenodd" fill="#FFFFFF" fill-opacity="1"/></g></g></svg>