<svg xmlns="http://www.w3.org/2000/svg" xmlns:xlink="http://www.w3.org/1999/xlink" fill="none" version="1.1" width="79.7998046875" height="20" viewBox="0 0 79.7998046875 20"><defs><linearGradient x1="0.01669413223862648" y1="-0.04983149468898773" x2="1.0185256004333496" y2="1.0192914009094238" id="master_svg0_1_6465"><stop offset="0%" stop-color="#0066FF" stop-opacity="1"/><stop offset="42.24049150943756%" stop-color="#00FFB7" stop-opacity="1"/><stop offset="53.546565771102905%" stop-color="#F7FFFD" stop-opacity="1"/><stop offset="60.372161865234375%" stop-color="#FFFFFF" stop-opacity="1"/><stop offset="99.99999403953552%" stop-color="#005EFF" stop-opacity="1"/></linearGradient><linearGradient x1="8.90148314088583" y1="-0.9966298937797546" x2="63.00038242340088" y2="20.385828018188477" gradientUnits="userSpaceOnUse" id="master_svg1_1_6465"><stop offset="0%" stop-color="#0066FF" stop-opacity="1"/><stop offset="42.24049150943756%" stop-color="#00FFB7" stop-opacity="1"/><stop offset="53.546565771102905%" stop-color="#F7FFFD" stop-opacity="1"/><stop offset="60.372161865234375%" stop-color="#FFFFFF" stop-opacity="1"/><stop offset="99.99999403953552%" stop-color="#005EFF" stop-opacity="1"/></linearGradient></defs><g><g><rect x="0.25" y="0.25" width="79.30000305175781" height="19.5" rx="9.75" stroke="url(#master_svg0_1_6465)" fill-opacity="0" fill="none" stroke-width="0.5"/><g><path d="M13.32,4.808C11.836,4.808,10.66,5.312,9.792,6.348C8.966,7.314,8.56,8.546,8.56,10.044C8.56,11.528,8.966,12.746,9.792,13.684C10.674,14.692,11.906,15.196,13.501999999999999,15.196C14.398,15.196,15.196,15.084,15.924,14.86C16.61,14.636,17.212,14.328,17.744,13.908L17.744,9.68L13.46,9.68L13.46,11.08L16.106,11.08L16.106,13.138C15.77,13.334,15.42,13.488,15.027999999999999,13.6C14.608,13.712,14.16,13.768,13.684000000000001,13.768C12.466000000000001,13.768,11.57,13.432,10.996,12.76C10.464,12.13,10.198,11.22,10.198,10.044C10.198,8.812,10.492,7.874,11.094,7.202C11.64,6.558,12.382,6.25,13.32,6.25C14.076,6.25,14.692,6.404,15.154,6.726C15.602,7.048,15.91,7.524,16.05,8.168L17.701999999999998,8.168C17.52,7.048,17.072,6.222,16.358,5.662C15.616,5.088,14.608,4.808,13.32,4.808ZM22.784,7.566C21.678,7.566,20.796,7.916,20.137999999999998,8.644C19.466,9.358,19.144,10.268,19.144,11.388C19.144,12.494,19.466,13.404,20.124000000000002,14.104C20.796,14.832,21.678,15.196,22.784,15.196C23.875999999999998,15.196,24.772,14.832,25.444,14.104C26.088,13.404,26.424,12.494,26.424,11.388C26.424,10.268,26.088,9.358,25.43,8.644C24.758,7.916,23.875999999999998,7.566,22.784,7.566ZM22.784,8.868C23.442,8.868,23.96,9.12,24.324,9.652C24.632,10.1,24.8,10.688,24.8,11.388C24.8,12.074,24.632,12.648,24.324,13.11C23.96,13.628,23.442,13.894,22.784,13.894C22.112000000000002,13.894,21.608,13.628,21.244,13.11C20.936,12.662,20.782,12.088,20.782,11.388C20.782,10.688,20.936,10.1,21.244,9.652C21.608,9.12,22.112000000000002,8.868,22.784,8.868ZM32.626000000000005,5.004L32.626000000000005,15L34.263999999999996,15L34.263999999999996,7.692L34.32,7.692L39.318,15L40.914,15L40.914,5.004L39.262,5.004L39.262,12.214L39.206,12.214L34.263999999999996,5.004L32.626000000000005,5.004ZM46.094,7.566C44.988,7.566,44.106,7.916,43.448,8.644C42.776,9.358,42.454,10.268,42.454,11.388C42.454,12.494,42.776,13.404,43.434,14.104C44.106,14.832,44.988,15.196,46.094,15.196C47.186,15.196,48.082,14.832,48.754,14.104C49.398,13.404,49.734,12.494,49.734,11.388C49.734,10.268,49.398,9.358,48.74,8.644C48.068,7.916,47.186,7.566,46.094,7.566ZM46.094,8.868C46.752,8.868,47.27,9.12,47.634,9.652C47.942,10.1,48.11,10.688,48.11,11.388C48.11,12.074,47.942,12.648,47.634,13.11C47.27,13.628,46.752,13.894,46.094,13.894C45.422,13.894,44.918,13.628,44.554,13.11C44.246,12.662,44.092,12.088,44.092,11.388C44.092,10.688,44.246,10.1,44.554,9.652C44.918,9.12,45.422,8.868,46.094,8.868ZM50.364,7.762L52.8,15L54.284,15L55.74,9.708L57.182,15L58.666,15L61.102,7.762L59.338,7.762L57.896,13.11L56.468,7.762L54.998,7.762L53.57,13.11L52.128,7.762L50.364,7.762Z" fill="url(#master_svg1_1_6465)" fill-opacity="1"/></g><g><path d="M71.01898,10L66.679908,13.61589L67.320092,14.38411L72.58103,10L67.320092,5.615889L66.679908,6.384111L71.01898,10Z" fill-rule="evenodd" fill="#FFFFFF" fill-opacity="1"/></g></g></g></svg>