<svg xmlns="http://www.w3.org/2000/svg" xmlns:xlink="http://www.w3.org/1999/xlink" fill="none" version="1.1" width="19" height="26" viewBox="0 0 19 26"><defs><linearGradient x1="0" y1="0.3749684989452362" x2="1.19908287036299" y2="1.0641504102157926" id="master_svg0_895_76343"><stop offset="0%" stop-color="#00FFB7" stop-opacity="1"/><stop offset="71.19778394699097%" stop-color="#FFFFFF" stop-opacity="1"/><stop offset="99.99998807907104%" stop-color="#FFFFFF" stop-opacity="1"/></linearGradient></defs><g><path d="M2,0L17,0C18.1046,0,19,0.895431,19,2L19,24C19,25.1046,18.1046,26,17,26L2,26C0.895431,26,0,25.1046,0,24L0,2C0,0.895431,0.895431,0,2,0M15.2249,12.4196C15.1507,15.6591,12.6209,18.2434,9.54472,18.258C9.50735,18.2582,9.45815,18.264,9.43236,18.2369C9.4293,18.2341,9.42646,18.231,9.42387,18.2277C9.3987,18.2013,9.4067,18.1539,9.40753,18.1175L9.46933,15.4205C9.47019,15.383,9.46581,15.3336,9.49256,15.3073C9.49477,15.3048,9.49711,15.3026,9.49958,15.3004C9.52626,15.2742,9.57464,15.28,9.61206,15.2789C11.1187,15.2338,12.3463,13.9562,12.3828,12.3609C12.4205,10.7165,11.1786,9.35723,9.609,9.32482C8.08468,9.29334,6.81183,10.5248,6.70513,12.102C6.70261,12.1392,6.70673,12.1883,6.67968,12.214C6.67747,12.2164,6.67512,12.2188,6.67264,12.221C6.64489,12.2473,6.59478,12.2413,6.5565,12.2406L3.99749,12.1877C3.96017,12.1869,3.91159,12.1924,3.88597,12.1653C3.88284,12.1624,3.87993,12.1593,3.87727,12.156C3.85169,12.1289,3.85976,12.0819,3.86143,12.0447C4.0064,8.82218,6.58271,6.28357,9.67723,6.34747C12.8165,6.41229,15.3002,9.13086,15.2249,12.4196ZM7.09013,13.0351L4.22754,15.906C4.1867,15.9469,4.18522,16.0147,4.22423,16.0574L5.87619,17.8656C5.9152,17.9083,5.97992,17.9097,6.02075,17.8687L8.88334,14.9978C8.92418,14.9569,8.92566,14.8891,8.88665,14.8464L7.23469,13.0382C7.19568,12.9955,7.13096,12.9941,7.09013,13.0351Z" fill-rule="evenodd" fill="url(#master_svg0_895_76343)" fill-opacity="1"/></g></svg>