<svg xmlns="http://www.w3.org/2000/svg" xmlns:xlink="http://www.w3.org/1999/xlink" fill="none" version="1.1" width="48" height="48" viewBox="0 0 48 48"><g><g><g></g><g><path d="M25.125,4.125C25.125,3.50368,24.6213,3,24,3C23.3787,3,22.875,3.50368,22.875,4.125L22.875,8.90625C22.875,9.52757,23.3787,10.03125,24,10.03125C24.6213,10.03125,25.125,9.52757,25.125,8.90625L25.125,4.125ZM11.3861,6.51426C10.9467,6.0749200000000005,10.2344,6.0749200000000005,9.79508,6.51426C9.35574,6.9536,9.35574,7.66591,9.79508,8.10525L13.1759,11.4861C13.6153,11.92544,14.3276,11.92544,14.7669,11.4861C15.2063,11.04676,15.2063,10.33445,14.7669,9.895109999999999L11.3861,6.51426ZM38.2049,8.10525C38.6443,7.66591,38.6443,6.9536,38.2049,6.51426C37.7656,6.0749200000000005,37.0533,6.0749200000000005,36.6139,6.51426L33.2331,9.895109999999999C32.7937,10.33445,32.7937,11.04676,33.2331,11.4861C33.6724,11.92544,34.3847,11.92544,34.8241,11.4861L38.2049,8.10525ZM47.9995,30.2344L48,30.2344L48,42C48,43.6569,46.6569,45,45,45L3,45C1.34315,45,0,43.6569,0,42L0,30.2344L0.000558412,30.2344C0.00867142,29.8941,0.105001,29.5614,0.280499,29.269L6.6195,18.7076C7.16221,17.8034,8.14031,17.25,9.19587,17.25L38.8038,17.25C39.8594,17.25,40.8375,17.8034,41.3802,18.7076L47.7192,29.269C47.9012,29.5722,47.9919,29.9046,47.9995,30.2344ZM31.349,30.0007C30.6346,30.0007,30.0193,30.5049,29.879,31.2055C29.7089,32.0393,29.3659,32.810199999999995,28.889,33.4791C27.8012,35.005,26.0169,36,24.0001,36C21.083,36,18.6522,33.9183,18.112,31.1594C17.9544,30.4825,17.3503,30,16.6512,30L3.13092,30C3.06293,30,2.99622,29.9815,2.93793,29.9465C2.76036,29.84,2.7028,29.6096,2.80938,29.432L8.55188,19.8644C8.68756,19.6383,8.93208,19.5,9.19597,19.5L38.8039,19.5C39.0678,19.5,39.3123,19.6383,39.448,19.8644L45.1905,29.432C45.2255,29.4903,45.244,29.557,45.244,29.625C45.244,29.8321,45.0761,30,44.869,30L31.4068,30Q31.378,30.0007,31.349,30.0007Z" fill-rule="evenodd" fill="#EEEEEE" fill-opacity="1"/></g></g></g></svg>