<svg xmlns="http://www.w3.org/2000/svg" xmlns:xlink="http://www.w3.org/1999/xlink" fill="none" version="1.1" width="53" height="26" viewBox="0 0 53 26"><defs><linearGradient x1="0" y1="0.3749684989452362" x2="1.020523190498352" y2="0.8554096817970276" id="master_svg0_237_29877"><stop offset="0%" stop-color="#00FFB7" stop-opacity="1"/><stop offset="67.3058807849884%" stop-color="#FFFFFF" stop-opacity="1"/><stop offset="99.99998807907104%" stop-color="#FFFFFF" stop-opacity="1"/></linearGradient><linearGradient x1="10" y1="11.624527484178543" x2="43.67726528644562" y2="18.831145226955414" gradientUnits="userSpaceOnUse" id="master_svg1_237_29877"><stop offset="0%" stop-color="#00FFB7" stop-opacity="1"/><stop offset="67.3058807849884%" stop-color="#FFFFFF" stop-opacity="1"/><stop offset="99.99998807907104%" stop-color="#FFFFFF" stop-opacity="1"/></linearGradient></defs><g><g><rect x="0.5" y="0.5" width="52" height="25" rx="12.5" stroke="url(#master_svg0_237_29877)" fill-opacity="0" fill="none" stroke-width="1"/></g><g><path d="M12.50352,8.37796L18.4095,16.6928L18.4095,8.37796L19.62842,8.37796L19.62842,19L18.54009,19L12.63412,10.67069L12.63412,19L11.4152,19L11.4152,8.37796L12.50352,8.37796ZM28.2625,14.08077L23.5899,14.08077L23.5899,17.8536L28.9735,17.8536L28.9735,19L22.2984,19L22.2984,8.36345L28.8139,8.36345L28.8139,9.50981L23.5899,9.50981L23.5899,12.93441L28.2625,12.93441L28.2625,14.08077ZM37.447900000000004,8.36345L40.0599,16.8669L42.4687,8.37796L43.7167,8.37796L40.509699999999995,19L39.4795,19L36.8675,10.772269999999999L34.3716,19L33.3558,19L29.9602,8.37796L31.3243,8.37796L33.9363,16.8669L36.3596,8.36345L37.447900000000004,8.36345Z" fill="url(#master_svg1_237_29877)" fill-opacity="1"/></g></g></svg>